<?xml version="1.0" encoding="iso-8859-1"?>
<!-- Uploaded to: SVG Repo, www.svgrepo.com, Generator: SVG Repo Mixer Tools -->
<svg fill="#000000" height="800px" width="800px" version="1.1" id="Layer_1" xmlns="http://www.w3.org/2000/svg" xmlns:xlink="http://www.w3.org/1999/xlink" 
	 viewBox="0 0 512 512" xml:space="preserve">
<g>
	<g>
		<path d="M356.721,268.59h-83.934v-55.956h16.787c9.271,0,16.787-7.516,16.787-16.787V52.601c0-26.287-19.169-49.806-45.332-52.355
			c-30.019-2.927-55.389,20.685-55.389,50.114v145.486c0,9.271,7.516,16.787,16.787,16.787h16.787v55.956h-83.934
			c-9.273,0-16.787,7.514-16.787,16.787v21.639c0,81.421,40.449,156.994,108.197,202.164c5.639,3.759,12.984,3.759,18.623,0
			c67.749-45.169,108.197-120.744,108.197-202.164v-21.639C373.508,276.103,365.994,268.59,356.721,268.59z"/>
	</g>
</g>
</svg>